<?xml version="1.0" encoding="UTF-8"?>
<svg width="72px" height="72px" viewBox="0 0 72 72" version="1.1" xmlns="http://www.w3.org/2000/svg" xmlns:xlink="http://www.w3.org/1999/xlink">
    <!-- Generator: Sketch 42 (36781) - http://www.bohemiancoding.com/sketch -->
    <title>Combined Shape Copy</title>
    <desc>Created with Sketch.</desc>
    <defs></defs>
    <g id="Page-1" stroke="none" stroke-width="1" fill="none" fill-rule="evenodd">
        <g id="支付完成-copy" transform="translate(-324.000000, -356.000000)" fill="#FF5846">
            <path d="M354.682836,393.438255 L338.94226,408.638753 C337.673864,409.863629 337.640155,411.890513 338.869473,413.163509 C340.096289,414.433914 342.124496,414.474635 343.394013,413.248677 L359.295571,397.892721 L375.197128,413.248677 C376.466645,414.474635 378.494852,414.433914 379.721668,413.163509 C380.950986,411.890513 380.917277,409.863629 379.648881,408.638753 L363.908305,393.438255 L379.648881,378.237758 C380.917277,377.012882 380.950986,374.985998 379.721668,373.713002 C378.494852,372.442597 376.466645,372.401876 375.197128,373.627834 L359.295571,388.983789 L343.394013,373.627834 C342.124496,372.401876 340.096289,372.442597 338.869473,373.713002 C337.640155,374.985998 337.673864,377.012882 338.94226,378.237758 L354.682836,393.438255 Z M360,428 C340.117749,428 324,411.882251 324,392 C324,372.117749 340.117749,356 360,356 C379.882251,356 396,372.117749 396,392 C396,411.882251 379.882251,428 360,428 Z" id="Combined-Shape-Copy"></path>
        </g>
    </g>
</svg>